<svg xmlns="http://www.w3.org/2000/svg" width="72" height="72" viewBox="0 0 72 72">
    <path fill="#1E88F5" fill-rule="nonzero" d="M31.17 31.162a3.161 3.161 0 0 0 3.174 3.174h3.762c3.645 0 6.702 3.057 6.702 6.702s-3.057 6.702-6.702 6.702h-.117v3.057c0 .94-.823 1.764-1.764 1.764-.94 0-1.764-.823-1.764-1.764V47.74h-5.055c-.941 0-1.764-.823-1.764-1.763 0-.941.823-1.764 1.764-1.764h8.7a3.161 3.161 0 0 0 3.175-3.175 3.161 3.161 0 0 0-3.175-3.174h-3.762c-3.645 0-6.702-3.057-6.702-6.702s3.057-6.702 6.702-6.702h.117v-3.057c0-.94.823-1.764 1.764-1.764.94 0 1.764.823 1.764 1.764v3.057h5.056c.94 0 1.763.823 1.763 1.763 0 .941-.823 1.764-1.763 1.764h-8.701a3.161 3.161 0 0 0-3.175 3.175zM8.005 33.513l9.054-4.468c.823-.47 1.293-1.528.823-2.351s-1.529-1.294-2.352-.823l-4.585 2.234c3.41-10.935 13.639-18.578 25.28-18.578 12.227 0 22.927 8.348 25.749 20.224.235.823.94 1.293 1.763 1.293h.47c.941-.235 1.53-1.176 1.294-2.116C62.092 15.524 50.1 6 36.225 6 22.586 6 10.828 15.054 7.301 28.105L4.36 21.99c-.47-.823-1.528-1.294-2.351-.823-.823.47-1.293 1.528-.823 2.351l4.468 9.054c.235.47.588.705 1.058.94.235.118.353.118.588.118.117 0 .353 0 .705-.118zm63.257 14.11l-4.703-8.936c-.47-.823-1.528-1.176-2.351-.706l-8.936 4.703c-.823.47-1.176 1.529-.706 2.352s1.529 1.176 2.352.705l4.82-2.586c-3.174 11.522-13.52 19.518-25.514 19.518-12.228 0-22.928-8.348-25.75-20.224-.235-.94-1.175-1.528-2.116-1.293-.94.235-1.528 1.176-1.293 2.116C10.358 56.794 22.35 66.2 36.226 66.2c13.756 0 25.631-9.171 29.04-22.457l2.94 5.526c.353.588.941.94 1.529.94.235 0 .588-.117.823-.235.823-.47 1.176-1.528.705-2.351z"/>
</svg>
