<svg xmlns="http://www.w3.org/2000/svg" width="72" height="72" viewBox="0 0 72 72">
    <g fill="#1E88F5" fill-rule="nonzero" stroke="#1E88F5" stroke-width="2">
        <path d="M18 9h29v1H18zM18 17h20v1H18zM18 24h18v1H18zM18 32h22v1H18zM18 40h16v1H18z"/>
        <path d="M58.83 43.434l3.985 12.93 3.123-4.349 4.847 1.176-4.523-14.694c1.184-.117 2.153-.822 2.8-1.998.538-.94.646-1.998.323-3.056-.108-.47-.323-.94-.647-1.41C70.031 31.444 71 30.033 71 28.387c0-1.645-.862-3.056-2.262-3.644.862-1.293.97-2.938.216-4.466-.754-1.41-2.154-2.116-3.662-1.999 0-.47 0-1.058-.107-1.528-.216-1.058-.862-1.88-1.723-2.468-1.293-.823-2.908-.705-4.093.235-.43-1.176-1.4-1.998-2.584-2.351V8.17c0-3.879-2.908-7.052-6.354-7.17H7.462C3.908 1.235 1 4.409 1 8.405v28.447l11.523.235V62.83c0 3.879 2.908 7.17 6.57 7.17h42.215c3.23 0 5.707-2.821 5.707-6.583v-3.056H57V44.61c.646-.235 1.292-.588 1.83-1.176zm9.585 7.523l-3.123-.705-1.938 2.586L60.23 42.73c1.077.47 2.261.47 3.23-.235.754-.47 1.293-1.175 1.616-1.998l3.338 10.461zM12.523 35.324l-9.908-.235V8.405c0-2.938 2.262-5.407 4.954-5.407 2.693 0 4.954 2.469 4.954 5.407v26.919zm6.462 32.795c-2.693 0-4.954-2.468-4.954-5.407V8.405c0-2.115-.862-4.114-2.262-5.407h38.662c2.692 0 4.954 2.469 4.954 5.407v3.997c-1.185.235-2.154 1.176-2.585 2.351-1.185-.94-2.8-1.058-4.092-.235-1.293.823-1.939 2.35-1.831 3.996a3.82 3.82 0 0 0-3.662 1.999c-.753 1.41-.646 3.174.216 4.349-1.293.588-2.262 1.998-2.262 3.644 0 1.646.862 3.056 2.262 3.644-.862 1.293-.97 2.939-.216 4.467.539 1.058 1.616 1.763 2.693 1.998l-4.631 14.693 4.846-1.175 3.123 4.35 3.985-13.049c.538.588 1.184 1.058 1.938 1.293v15.634H24.692l-1.077.118.216.94c.107.353.215 1.058.215 1.41-.108 2.94-2.37 5.29-5.061 5.29zm28.107-27.74c.323.822.862 1.645 1.616 2.115.969.588 2.154.705 3.123.235l-3.123 9.992-1.831-2.469-3.015.705 3.23-10.579zm18.2 21.628V63.3c0 2.821-1.723 4.82-4.092 4.82H23.292c1.4-1.294 2.262-3.292 2.262-5.408v-.705h39.738zm-8.936-19.043c-1.32 0-2.28-1.11-2.28-2.343v-.246-.37l-.6-.124-1.201-.246c0 .123 0 .123-.12.246 0 .124-.12.247-.12.247-.6 1.11-2.04 1.48-3.121.863-1.08-.616-1.44-2.096-.84-3.33 0-.122.12-.122.24-.246l.24-.246-1.32-1.233s-.12.123-.24.123-.12.123-.24.123c-1.081.617-2.522.247-3.122-.863-.6-1.11-.24-2.59.84-3.206.12 0 .24-.123.24-.123.12 0 .24-.124.36-.124l-.48-1.726c-.12 0-.24 0-.36.123h-.24c-1.32 0-2.28-1.11-2.28-2.343 0-1.356 1.08-2.342 2.28-2.342h.48l.48-1.727h-.12c-.12 0-.12 0-.24-.123-.12 0-.24-.123-.24-.123-1.08-.617-1.44-2.097-.84-3.206.6-1.11 2.04-1.48 3.241-.864.12 0 .12.124.24.124s.12.123.24.246l1.32-1.233-.24-.246c0-.124-.12-.124-.12-.247-.6-1.11-.24-2.59.84-3.206 1.081-.617 2.522-.247 3.122.863 0 .123.12.247.12.247 0 .123.12.246.12.37l1.68-.494c0-.123 0-.246-.12-.37v-.246c0-1.357 1.08-2.343 2.28-2.343 1.321 0 2.281 1.11 2.281 2.343v.987l1.56.493.361-.74c0-.124.12-.247.12-.247.6-1.11 2.04-1.48 3.12-.863.481.37.961.863 1.081 1.48.12.616.12 1.233-.24 1.85 0 .123-.12.123-.12.246s-.12.123-.12.247l-.12.123 1.32 1.233s.12-.123.24-.123.12-.124.24-.124c1.08-.616 2.521-.246 3.121.864.6 1.11.24 2.589-.84 3.206-.12 0-.24.123-.24.123-.12 0-.24.123-.36.123l.48 1.727c.12 0 .24 0 .36-.124h.24c1.32 0 2.281 1.11 2.281 2.343 0 1.356-1.08 2.343-2.28 2.343h-.24l-1.081-.123v.986l-.24.74.72.37c.12 0 .24.123.24.123.48.37.96.863 1.08 1.48.12.616.12 1.233-.24 1.85-.6 1.11-2.04 1.48-3.24.863-.12 0-.12-.124-.24-.247l-.24-.246-1.201 1.356.12.123c0 .124.12.124.12.247.6 1.11.24 2.59-.84 3.206-1.08.616-2.52.247-3.121-.863 0-.124-.12-.247-.12-.247 0-.123-.12-.247-.12-.37l-1.68.493c0 .124 0 .247.12.37v.247c.24.986-.84 2.096-2.161 2.096z"/>
        <path d="M64 28c0-4.418-3.358-8-7.5-8-4.142 0-7.5 3.582-7.5 8s3.358 8 7.5 8c4.142 0 7.5-3.582 7.5-8zm-7.5 6.209c-3.246 0-5.82-2.866-5.82-6.209 0-3.343 2.686-6.209 5.82-6.209 3.246 0 5.82 2.866 5.82 6.209 0 3.343-2.574 6.209-5.82 6.209z"/>
    </g>
</svg>
