<svg xmlns="http://www.w3.org/2000/svg" width="106" height="122" viewBox="0 0 106 122">
    <g fill="#1E88F5" fill-rule="nonzero">
        <path d="M52.5 40C45.596 40 40 45.597 40 52.5 40 59.4 45.597 65 52.5 65 59.4 65 65 59.401 65 52.5 65 45.596 59.401 40 52.5 40zm0 19.998c-4.137 0-7.5-3.363-7.5-7.499C45 48.363 48.363 45 52.5 45c4.137 0 7.498 3.363 7.498 7.5 0 4.135-3.361 7.498-7.499 7.498z"/>
        <path d="M78.635 25.075V15.92c0-5.275-4.281-9.553-9.56-9.553a9.552 9.552 0 0 0-4.718 1.242A9.558 9.558 0 0 0 54.993 0a9.56 9.56 0 0 0-9.472 8.23 9.517 9.517 0 0 0-5.671-1.862c-5.283 0-9.564 4.278-9.564 9.553v4.972a9.518 9.518 0 0 0-5.566-1.787 9.564 9.564 0 0 0-8.867 5.969H0v55.461h15.143v7.06c0 18.449 14.973 33.404 33.445 33.404 13.196 0 24.609-7.636 30.047-18.725l10.988-21.739H106V25.075H78.635zM64.557 15.92a4.519 4.519 0 0 1 4.518-4.51 4.518 4.518 0 0 1 4.514 4.51v9.154h-9.032V15.92zm-14.08-6.368a4.519 4.519 0 0 1 4.516-4.51 4.518 4.518 0 0 1 4.514 4.51v15.522h-9.03V9.553zM35.334 15.92a4.519 4.519 0 0 1 4.516-4.51 4.518 4.518 0 0 1 4.516 4.51v9.154h-9.032V15.92zM24.72 24.148c1.028 0 1.976.347 2.736.927h-5.474a4.497 4.497 0 0 1 2.738-.927zm66.263 42.504l-.011.022-.011.015-8.637 17.097-7.09 14.076c-1.405 3.652-3.712 6.938-6.566 9.789-5.368 5.358-12.496 8.305-20.08 8.305-7.587 0-14.716-2.947-20.08-8.305-5.363-5.358-8.317-12.477-8.317-20.055h-.002v-7.06h45.274l-2.673 5.17h5.67l10.094-19.52 2.417-4.682a5.617 5.617 0 0 1 5.014-3.052c.898 0 1.763.211 2.573.626a5.6 5.6 0 0 1 2.78 3.287 5.58 5.58 0 0 1-.355 4.287zm-19.01 1.278H19.137a12.702 12.702 0 0 0-6.517-6.51V44.19a12.689 12.689 0 0 0 6.517-6.51h67.727a12.675 12.675 0 0 0 6.514 6.51v12.202a10.597 10.597 0 0 0-2.51-1.795 10.643 10.643 0 0 0-4.884-1.187 10.688 10.688 0 0 0-9.5 5.783l-4.51 8.737zm28.977 7.562h-8.78l3.301-6.528c.547-1.071.898-2.186 1.065-3.316a7.64 7.64 0 0 1 1.893-.237V40.2c-4.182 0-7.572-3.384-7.572-7.563H15.143c0 4.179-3.39 7.563-7.572 7.563V65.41c4.182 0 7.572 3.383 7.572 7.563H69.37l-1.301 2.518H5.049V30.117h95.9v45.375z"/>
    </g>
</svg>
