<svg xmlns="http://www.w3.org/2000/svg" width="80" height="81" viewBox="0 0 80 81">
    <path fill="#1E88F5" fill-rule="nonzero" stroke="#1E88F5" d="M12.43 12.576c-15.24 15.434-15.24 40.414 0 55.848C19.747 75.837 29.572 80 40 80s20.152-4.062 27.57-11.576C74.99 60.91 79 51.06 79 40.5c0-10.56-4.01-20.41-11.43-27.924-15.238-15.435-40.002-15.435-55.14 0zM39.9 3.03c9.123 0 18.347 3.452 25.365 10.256l-5.815 5.89c-2.005-1.829-4.11-3.352-6.417-4.57v-.508c0-.914-.4-1.828-1.002-2.437-1.303-1.32-3.61-1.32-4.913 0-.2.203-.3.406-.4.508a28.554 28.554 0 0 0-12.433-.305c-.1-.203-.2-.305-.4-.508-1.304-1.32-3.61-1.32-4.913 0-.702.61-1.003 1.523-1.003 2.437a30.406 30.406 0 0 0-7.82 5.28l-5.815-5.889C21.653 6.483 30.776 3.031 39.9 3.031zM58.848 59.59c-10.426 10.56-27.37 10.56-37.797 0-10.226-10.357-10.426-26.909-.701-37.57l7.018 7.107c-2.707 3.148-4.311 7.108-4.311 11.373 0 4.57 1.804 8.834 4.912 12.084 3.309 3.35 7.62 4.975 11.93 4.975 4.312 0 8.623-1.625 11.931-4.975 6.317-6.398 6.517-16.755.702-23.457l7.018-7.108c9.725 10.56 9.525 27.214-.702 37.571zM29.172 16.333c.602.71 1.504 1.015 2.406 1.015.903 0 1.805-.406 2.407-1.015.701-.61 1.002-1.523 1.002-2.437 1.604-.305 3.309-.508 4.913-.508 2.105 0 4.21.305 6.316.813 0 .913.401 1.827 1.003 2.437a3.479 3.479 0 0 0 2.406 1.015c.902 0 1.804-.406 2.406-1.015 0 0 .1-.102.1-.204 2.106 1.117 4.01 2.539 5.815 4.164l-7.018 7.108a17.245 17.245 0 0 0-10.427-4.265c-.2-.305-.4-.71-.702-.914-1.303-1.32-3.609-1.32-4.912 0-.501.508-.802 1.219-1.003 1.93-2.005.71-3.81 1.827-5.514 3.249l-7.018-7.108c2.106-2.031 4.512-3.554 7.018-4.773.501.203.602.305.802.508zm21.255 34.829a14.753 14.753 0 0 1-21.054 0c-2.807-2.843-4.311-6.6-4.311-10.662 0-3.656 1.303-7.21 3.71-9.951l8.12 8.225c-.2.507-.3.914-.3 1.421 0 1.016.4 1.93 1.102 2.64.702.711 1.704 1.117 2.607 1.117.902 0 1.905-.406 2.606-1.117.702-.71 1.103-1.624 1.103-2.64 0-.609-.2-1.218-.501-1.827l7.72-7.82c5.013 5.89 4.812 14.928-.802 20.614zM34.486 26.386c.2.304.4.71.702.913.601.711 1.504 1.016 2.406 1.016.902 0 1.804-.406 2.406-1.016.501-.507.802-1.218 1.003-1.929a14.55 14.55 0 0 1 8.722 3.656l-7.72 7.92c-1.203-.71-2.707-.61-3.91.203l-7.92-8.022a14.104 14.104 0 0 1 4.31-2.741zM66.066 66.9c-14.436 14.622-37.896 14.622-52.233 0C-.303 52.584-.604 29.331 13.13 14.708l5.815 5.89C8.419 31.97 8.72 49.943 19.648 61.012c5.614 5.686 12.933 8.53 20.352 8.53a28.593 28.593 0 0 0 20.352-8.53c10.928-11.069 11.129-29.042.602-40.414l5.815-5.89c13.735 14.622 13.534 37.876-.702 52.193z"/>
</svg>
